<svg width="24" height="24" viewBox="0 0 24 24" fill="none"
    xmlns="http://www.w3.org/2000/svg">
    <g clip-path="url(#clip0)">
        <g clip-path="url(#clip1)">
            <rect width="23.9999" height="23.9999" fill="url(#paint0_linear)"/>
            <path d="M15.9042 8.06949C16.3809 8.54609 16.3809 9.31882 15.9042 9.79543L9.80214 15.8975C9.32554 16.3741 8.55281 16.3741 8.0762 15.8975C7.5996 15.4209 7.5996 14.6482 8.0762 14.1716L14.1783 8.06949C14.6549 7.59289 15.4276 7.59289 15.9042 8.06949Z" fill="white" fill-opacity="0.6"/>
            <path d="M7.10784 8.82774V15.1392L8.0755 14.1716C8.5521 13.695 9.32483 13.695 9.80144 14.1716C10.278 14.6482 10.278 15.4209 9.80144 15.8975L7.79208 17.9069C6.63884 19.0601 4.66699 18.2433 4.66699 16.6124V7.35457C4.66699 5.72365 6.63884 4.90688 7.79208 6.06011L16.8712 15.1392V8.82775L15.9035 9.79541C15.4269 10.272 14.6542 10.272 14.1776 9.79541C13.701 9.3188 13.701 8.54608 14.1776 8.06947L16.187 6.06011C17.3402 4.90688 19.312 5.72364 19.312 7.35457V16.6124C19.312 18.2433 17.3402 19.0601 16.187 17.9069L7.10784 8.82774Z" fill="white"/>
        </g>
    </g>
    <defs>
        <linearGradient id="paint0_linear" x1="23.9999" y1="30.1271" x2="-5.13212" y2="-1.38232" gradientUnits="userSpaceOnUse">
            <stop stop-color="#008899"/>
            <stop offset="1" stop-color="#66FF66"/>
        </linearGradient>
        <clipPath id="clip0">
            <rect width="24" height="24" fill="white"/>
        </clipPath>
        <clipPath id="clip1">
            <rect width="24" height="24" rx="5.47573" fill="white"/>
        </clipPath>
    </defs>
</svg>
